<?xml version="1.0" standalone="no"?>
<!DOCTYPE svg PUBLIC "-//W3C//DTD SVG 1.1//EN" "http://www.w3.org/Graphics/SVG/1.1/DTD/svg11.dtd" >
<svg xmlns="http://www.w3.org/2000/svg" xmlns:xlink="http://www.w3.org/1999/xlink" version="1.1">
<metadata></metadata>
<defs>
<font id="web_serveroffitalic" horiz-adv-x="798" >
<font-face units-per-em="2048" ascent="1536" descent="-512" />
<missing-glyph horiz-adv-x="716" />
<glyph horiz-adv-x="0" />
<glyph horiz-adv-x="682" />
<glyph unicode=" "  horiz-adv-x="716" />
<glyph unicode="&#x09;" horiz-adv-x="716" />
<glyph unicode="&#xa0;" horiz-adv-x="716" />
<glyph unicode="!" horiz-adv-x="286" d="M106 0l31 229h72l-31 -229h-72zM162 397l143 1024h72l-144 -1024h-71z" />
<glyph unicode="&#x22;" horiz-adv-x="471" d="M266 1151l53 369h72l-53 -369h-72zM446 1151l54 369h69l-53 -369h-70z" />
<glyph unicode="#" horiz-adv-x="917" d="M106 4l207 512h-133l10 72h154l100 246h-139l10 71h158l215 531l70 -17l-209 -514h162l215 531l69 -17l-209 -514h136l-11 -71h-155l-101 -246h144l-11 -72h-161l-215 -530l-68 18l207 512h-162l-215 -530zM418 588h164l100 246h-164z" />
<glyph unicode="$" horiz-adv-x="860" d="M115 31l10 73q145 -48 268 -53l88 627q-24 3 -44.5 7t-45.5 12t-43.5 19.5t-39 28.5t-32.5 39.5t-22.5 52.5t-10 67.5t4.5 84.5l20 137q19 143 106.5 222t213.5 90l26 182h72l-27 -180q111 -6 236 -37l-10 -76q-137 38 -234 43l-90 -629q28 -3 51.5 -8t52.5 -15t49 -25 t41.5 -38t30.5 -54.5t15 -73.5t-4 -95l-19 -139q-21 -143 -109 -221.5t-214 -89.5l-25 -181h-72l25 181q-141 6 -268 49zM316.5 907q1.5 -35 16.5 -61t30 -42.5t39.5 -28t45 -17t44.5 -8.5l86 618q-94 -10 -159 -70.5t-79 -171.5l-21 -137q-4 -47 -2.5 -82zM465 53 q95 8 160.5 68t81.5 172l18 139q31 215 -174 238z" />
<glyph unicode="%" horiz-adv-x="962" d="M106 10l873 1434l55 -31l-872 -1438zM211 860l57 416q12 80 64 122t125 42q72 0 112 -42t29 -122l-57 -416q-11 -83 -63.5 -124.5t-125.5 -41.5q-74 0 -113 41t-28 125zM283 860q-7 -45 16 -69.5t63 -24.5t70 24.5t37 69.5l57 416q6 46 -15.5 70t-61.5 24 q-41 0 -72 -24.5t-37 -69.5zM547 145l59 416q12 80 64 123t123 43q72 0 113 -43t30 -123l-59 -416q-10 -82 -63 -123.5t-126 -41.5q-72 0 -111.5 41.5t-29.5 123.5zM618 145q-6 -45 17 -69.5t63 -24.5q41 0 71 24.5t36 69.5l59 416q6 45 -18 69.5t-64 24.5t-69 -24.5 t-35 -69.5z" />
<glyph unicode="&#x26;" horiz-adv-x="1003" d="M154 293l18 139q34 224 223 279q-176 52 -145 278l20 137q22 154 120.5 234t236.5 80t266 -49l-10 -78q-142 57 -265 57q-108 0 -184 -60.5t-94 -183.5l-21 -137q-9 -62 3.5 -109t36 -72t59.5 -40t65 -19t62 -4h497l-10 -71h-198l-54 -381q-23 -156 -113.5 -234.5 t-230.5 -78.5q-144 0 -224 80t-58 233zM223 293q-18 -121 45.5 -181.5t177.5 -60.5q227 0 263 242l53 381h-227q-33 0 -62.5 -4t-70 -18.5t-70.5 -39.5t-55.5 -71.5t-34.5 -108.5z" />
<glyph unicode="'" horiz-adv-x="286" d="M266 1151l53 369h72l-53 -369h-72z" />
<glyph unicode="(" horiz-adv-x="450" d="M125 135l162 1151q23 163 113 257.5t227 94.5l-11 -69q-105 0 -172 -75.5t-86 -207.5l-161 -1151q-19 -131 26.5 -206.5t151.5 -75.5l-10 -72q-137 0 -200 95.5t-40 258.5z" />
<glyph unicode=")" horiz-adv-x="450" d="M14 -219l11 72q106 0 173.5 75.5t86.5 206.5l161 1151q19 131 -27.5 207t-152.5 76l10 69q137 0 200 -94.5t40 -257.5l-162 -1151q-24 -163 -114 -258.5t-226 -95.5z" />
<glyph unicode="*" horiz-adv-x="688" d="M248 1036l188 121l-157 123l51 59l145 -112l27 194h71l-26 -194l174 112l33 -61l-189 -121l156 -121l-51 -61l-144 110l-26 -192h-72l27 192l-176 -110z" />
<glyph unicode="+" horiz-adv-x="757" d="M190 674v71h230v230h72v-230h227v-71h-227v-228h-72v228h-230z" />
<glyph unicode="," horiz-adv-x="327" d="M53 -258q65 130 92 258h-39l27 190h111l-25 -174q-19 -127 -88 -274h-78z" />
<glyph unicode="-" horiz-adv-x="757" d="M190 674v71h529v-71h-529z" />
<glyph unicode="." horiz-adv-x="327" d="M106 0l27 190h111l-27 -190h-111z" />
<glyph unicode="/" horiz-adv-x="835" d="M47 10l871 1434l55 -31l-871 -1438z" />
<glyph unicode="0" horiz-adv-x="860" d="M152 293l116 833q22 154 121 234t236 80t214.5 -80t55.5 -234l-117 -833q-15 -103 -68.5 -175t-127 -105t-162.5 -33q-137 0 -213.5 80t-54.5 233zM219 274l594 981q-42 115 -197 115q-108 0 -183 -60.5t-93 -183.5l-117 -833zM229 166q42 -115 201 -115 q108 0 183.5 60.5t93.5 181.5l116 833v23z" />
<glyph unicode="1" horiz-adv-x="368" d="M145 0l191 1362h-139l10 72h211l-201 -1434h-72z" />
<glyph unicode="2" horiz-adv-x="860" d="M111 0l59 432q8 57 26 103t40 77t53.5 55t58.5 37t62.5 22.5t59.5 12.5t56 6q36 3 60.5 7.5t65 20t67 39t51 69.5t33.5 108l20 137q18 123 -40.5 183.5t-166.5 60.5q-125 0 -282 -57l10 78q143 49 281 49q137 0 214.5 -80t55.5 -234l-21 -137q-8 -57 -25.5 -103 t-40 -77.5t-53 -55.5t-58 -37.5t-63 -22.5t-59.5 -12.5t-55 -6.5q-35 -2 -61 -6t-65.5 -19.5t-67 -39.5t-51.5 -69.5t-33 -107.5l-52 -360h555l-8 -72h-626z" />
<glyph unicode="3" horiz-adv-x="860" d="M154 31l10 75q145 -55 266 -55q108 0 183.5 60.5t93.5 181.5l41 299q18 121 -45.5 181.5t-178.5 60.5l11 71q6 0 17.5 -1t18.5 -1l271 459h-541l10 72h627l-8 -58l-287 -485q96 -28 145 -104t31 -195l-41 -299q-15 -103 -68.5 -175t-127 -105t-162.5 -33q-133 0 -266 51z " />
<glyph unicode="4" horiz-adv-x="903" d="M176 477l6 39h-6l8 19l2 12h2l396 874h78l-396 -874h459l68 477h71l-67 -477h118l-10 -70h-119l-65 -477h-72l66 477h-539z" />
<glyph unicode="5" horiz-adv-x="860" d="M154 31l10 75q145 -55 266 -55q108 0 183.5 60.5t93.5 181.5l41 299q18 121 -40.5 181.5t-166.5 60.5q-47 0 -91.5 -22t-84 -73.5t-56.5 -124.5q-3 -9 -8 -39h-72l160 846h526l-10 -71h-454l-111 -566q78 121 211 121q137 0 213.5 -80t54.5 -233l-41 -299 q-15 -103 -68.5 -175t-127 -105t-162.5 -33q-133 0 -266 51z" />
<glyph unicode="6" horiz-adv-x="860" d="M152 293l116 833q22 154 121 234t236 80t268 -49l-10 -78q-145 57 -267 57q-108 0 -183 -60.5t-93 -183.5l-41 -288q163 67 252 67q137 0 213.5 -80t54.5 -233l-39 -283q-24 -161 -123.5 -245t-236.5 -84t-213.5 80t-54.5 233zM223 293q-18 -121 40.5 -181.5t166.5 -60.5 t184 64t95 194l39 283q18 121 -40.5 181.5t-166.5 60.5q-105 0 -248 -46z" />
<glyph unicode="7" horiz-adv-x="860" d="M223 0l606 1362h-569l10 72h652l-9 -60l-612 -1374h-78z" />
<glyph unicode="8" horiz-adv-x="860" d="M152 293l18 139q29 207 199 277q-150 73 -121 280l20 137q21 148 118.5 231t236.5 83q142 0 217.5 -83.5t54.5 -230.5l-21 -137q-29 -208 -198 -280q150 -68 121 -277l-19 -139q-21 -148 -120 -230.5t-240 -82.5q-140 0 -213.5 82.5t-52.5 230.5zM223 293 q-18 -118 41 -180t166 -62q106 0 182.5 62t94.5 180l18 139q10 70 -4 119.5t-47.5 74.5t-71 35.5t-82.5 10.5q-47 0 -88 -10.5t-81.5 -35.5t-69.5 -74.5t-39 -119.5zM319 989q-14 -107 42 -175.5t165 -68.5q105 0 183.5 65.5t93.5 178.5l20 137q17 118 -42 181t-165 63 t-182.5 -63t-93.5 -181z" />
<glyph unicode="9" horiz-adv-x="860" d="M154 31l10 75q145 -55 266 -55q108 0 183.5 60.5t93.5 181.5l38 289q-170 -66 -249 -66q-137 0 -214.5 79.5t-56.5 233.5l41 283q22 161 122 244.5t237 83.5t214.5 -80t55.5 -234l-117 -833q-15 -103 -68.5 -175t-127 -105t-162.5 -33q-133 0 -266 51zM297 829 q-16 -121 42.5 -181t166.5 -60t248 45l69 493q18 123 -40.5 183.5t-166.5 60.5t-184 -64t-94 -194z" />
<glyph unicode=":" horiz-adv-x="327" d="M106 0l27 190h111l-27 -190h-111zM184 555l27 190h111l-27 -190h-111z" />
<glyph unicode=";" horiz-adv-x="327" d="M53 -258q65 130 92 258h-39l27 190h111l-25 -174q-19 -127 -88 -274h-78zM184 555l27 190h111l-27 -190h-111z" />
<glyph unicode="&#x3c;" horiz-adv-x="636" d="M199 711l428 374l43 -51l-369 -323l279 -324l-58 -51z" />
<glyph unicode="=" horiz-adv-x="757" d="M190 596v72h529v-72h-529zM190 754v71h529v-71h-529z" />
<glyph unicode="&#x3e;" horiz-adv-x="636" d="M154 387l368 324l-278 323l59 51l322 -374l-426 -375z" />
<glyph unicode="?" horiz-adv-x="819" d="M229 0l27 190h72l-27 -190h-72zM272 317l17 115q10 71 36.5 127.5t56 88t66.5 54t60 30t45 11.5l-6 -2l33 11q24 6 39 11t41.5 21.5t44 39.5t34.5 66t25 99l20 137q18 123 -41.5 183.5t-167.5 60.5q-126 0 -280 -57l10 78q140 49 279 49q138 0 215 -80t55 -234l-20 -137 q-7 -53 -22.5 -97t-32.5 -73.5t-42 -54t-44 -38t-46 -24.5t-40 -15t-34 -9l-18 -4q-16 -3 -32.5 -9.5t-44 -24t-49.5 -42t-41.5 -68t-27.5 -98.5l-16 -115h-72z" />
<glyph unicode="@" d="M121 293l61 438q21 153 120.5 233t236.5 80t214 -80t56 -233l-55 -383q-7 -53 -44.5 -81.5t-86.5 -28.5q-73 0 -99 51q-39 -51 -98 -51q-66 0 -103.5 38.5t-27.5 110.5l35 248q10 74 57.5 112.5t114.5 38.5q48 0 73 -32l3 12h71l-59 -418q-1 -20 10.5 -29.5t32.5 -9.5 q46 0 49 39l55 383q16 121 -42.5 181.5t-166.5 60.5t-183 -60.5t-91 -181.5l-61 -438q-18 -121 40 -181.5t166 -60.5q120 0 283 55l-10 -75q-151 -51 -283 -51q-137 0 -213.5 80t-54.5 233zM367 387q-6 -38 13.5 -58t55.5 -20q71 0 88 70l37 264q1 34 -17 53t-50 19 q-35 0 -61 -21t-32 -59z" />
<glyph unicode="A" horiz-adv-x="860" d="M45 0l545 1434h72l141 -1434h-78l-33 340h-442l-129 -340h-76zM276 412h408l-80 858z" />
<glyph unicode="B" horiz-adv-x="839" d="M109 0l200 1434h281q146 0 228 -81q64 -64 64 -173q0 -29 -5 -62l-17 -121q-31 -211 -203 -280q128 -58 129 -213q0 -32 -6 -68l-16 -121q-22 -154 -125.5 -234.5t-249.5 -80.5h-280zM188 72h209q116 0 196.5 60t98.5 183l17 121q4 26 4 50q1 34 -7 60q-12 46 -34 69.5 t-62 38.5t-63.5 19t-63.5 7h-209zM285 754h209q25 2 39 3.5t42 6.5t46 12.5t43 19t42.5 29.5t35 41.5t29 57t17.5 73.5l17 121q4 27 4 51q1 85 -49 133q-64 60 -180 60h-209z" />
<glyph unicode="C" horiz-adv-x="778" d="M150 297l118 840q21 155 121.5 236t239.5 81q134 0 270 -51l-12 -78q-142 57 -269 57q-110 0 -186 -61t-92 -184l-119 -840q-4 -29 -4 -54q-1 -83 45 -131q60 -62 170 -61q122 0 285 58l-10 -78q-151 -51 -285 -51q-138 0 -216 81q-60 63 -61 171q0 31 5 65z" />
<glyph unicode="D" horiz-adv-x="839" d="M109 0l200 1434h297q138 0 216 -81q60 -63 60 -170q0 -30 -5 -65l-113 -803q-22 -154 -121 -234.5t-237 -80.5h-297zM188 72h226q108 0 184 60t94 183l113 803q4 29 4 54q1 84 -45 130q-60 60 -168 60h-225z" />
<glyph unicode="E" horiz-adv-x="716" d="M109 0l200 1434h553l-10 -72h-481l-86 -608h422l-11 -74h-422l-86 -608h482l-8 -72h-553z" />
<glyph unicode="F" horiz-adv-x="716" d="M109 0l200 1434h553l-10 -72h-481l-86 -608h422l-11 -74h-422l-94 -680h-71z" />
<glyph unicode="G" horiz-adv-x="860" d="M150 297l118 840q21 155 121.5 236t239.5 81q128 0 272 -39l-12 -76q-150 43 -271 43q-110 0 -186 -61t-92 -184l-119 -840q-4 -29 -4 -54q0 -83 45 -131q60 -61 170 -61q109 0 248 33l84 596h-260l10 74h332l-101 -723q-172 -51 -323 -51q-139 0 -216 81q-61 63 -61 171 q0 31 5 65z" />
<glyph unicode="H" horiz-adv-x="839" d="M109 0l200 1434h72l-96 -680h469l96 680h72l-201 -1434h-72l94 680h-469l-94 -680h-71z" />
<glyph unicode="I" horiz-adv-x="286" d="M106 0l201 1434h72l-201 -1434h-72z" />
<glyph unicode="J" horiz-adv-x="757" d="M53 31l10 78q141 -58 267 -58q109 0 185.5 61.5t94.5 184.5l160 1137h72l-160 -1137q-22 -155 -123 -236t-240 -81q-136 0 -266 51z" />
<glyph unicode="K" horiz-adv-x="839" d="M109 0l200 1434h74l-96 -680h221l412 680h77l-434 -717l236 -717h-78l-223 680h-222l-94 -680h-73z" />
<glyph unicode="L" horiz-adv-x="716" d="M109 0l200 1434h72l-193 -1362h482l-8 -72h-553z" />
<glyph unicode="M" horiz-adv-x="1095" d="M106 0l199 1427v7h78l225 -977l494 977h80l-6 -13l-199 -1421h-72l172 1227l-450 -887h-68l-209 895l-172 -1235h-72z" />
<glyph unicode="N" horiz-adv-x="839" d="M109 0l200 1434h68l303 -1213l170 1213h72l-201 -1434h-66l-305 1212l-170 -1212h-71z" />
<glyph unicode="O" horiz-adv-x="860" d="M150 297l118 840q21 155 121.5 236t239.5 81q137 0 215 -80q61 -63 61 -174q0 -30 -4 -63l-119 -840q-22 -156 -122 -236.5t-238 -80.5t-216 81q-60 63 -61 171q0 31 5 65zM221 297q-4 -29 -4 -54q-1 -83 45 -131q60 -62 170 -61q108 0 184.5 61.5t94.5 184.5l118 840 q3 26 3 49q0 87 -46 135q-60 61 -168 61q-110 0 -186 -61t-92 -184z" />
<glyph unicode="P" d="M109 0l200 1434h281q146 0 228 -81q64 -64 64 -173q0 -29 -5 -62l-39 -280q-11 -79 -42.5 -138.5t-70.5 -93t-89 -54t-91 -26.5t-84 -6h-209l-72 -520h-71zM262 592h209q33 0 63.5 4t70.5 19t70.5 40.5t56 72.5t34.5 110l39 280q4 27 4 51q1 85 -49 133q-64 60 -180 60 h-209z" />
<glyph unicode="Q" horiz-adv-x="860" d="M150 297l118 840q21 155 121.5 236t239.5 81q138 0 215 -80q61 -64 61 -174q0 -30 -4 -63l-119 -840q-26 -187 -168 -268l76 -230h-78l-65 201q-65 -20 -125 -20q-139 0 -216 81q-61 63 -61 171q0 31 5 65zM221 297q-4 -29 -4 -54q0 -83 45 -131q60 -61 170 -61 q46 0 92 12l-80 250h78l70 -219q99 63 119 203l118 840q3 26 3 49q0 87 -46 135q-60 61 -168 61q-110 0 -186 -61t-92 -184z" />
<glyph unicode="R" horiz-adv-x="839" d="M109 0l200 1434h281q146 0 228 -81q65 -64 66 -173q0 -29 -5 -62l-39 -280q-33 -239 -246 -301l176 -537h-78l-172 522q-20 -2 -59 -2h-207l-72 -520h-73zM264 592h207q33 0 63.5 4t70.5 19t70.5 40.5t56 72.5t34.5 110l39 280q4 27 4 51q1 85 -49 133q-64 60 -180 60 h-207z" />
<glyph unicode="S" horiz-adv-x="860" d="M113 31l10 75q157 -55 309 -55q108 0 184.5 61.5t94.5 184.5l18 139q4 31 4 58q1 40 -9 70q-16 52 -58 74.5t-71.5 30t-76.5 11.5q-21 2 -37 4t-39.5 6.5t-40.5 10.5t-39.5 15.5t-37 22t-32 30.5t-25.5 40t-17 50t-7 62t5 76l20 140q21 155 121.5 236t239.5 81 q128 0 272 -39l-12 -76q-150 43 -271 43q-110 0 -186 -61t-92 -184l-21 -140q-4 -27 -4 -50q0 -32 7 -58q12 -46 32.5 -70t58 -39t60 -19t59.5 -7q45 -4 78 -10t77.5 -27t70.5 -52.5t40 -90.5q8 -33 7 -72q0 -31 -4 -66l-19 -139q-22 -156 -122 -236.5t-238 -80.5 q-158 0 -309 51z" />
<glyph unicode="T" horiz-adv-x="737" d="M240 1362l10 72h633l-11 -72h-280l-191 -1362h-71l190 1362h-280z" />
<glyph unicode="U" horiz-adv-x="839" d="M150 297l159 1137h72l-160 -1137q-4 -30 -4 -56q0 -83 42 -129q56 -62 163 -61q105 0 177.5 61t90.5 185l160 1137h72l-160 -1137q-22 -157 -117 -237t-233 -80q-140 0 -212 80q-56 61 -55 168q0 32 5 69z" />
<glyph unicode="V" horiz-adv-x="860" d="M246 1434h76l127 -1268l477 1268h78l-543 -1434h-72z" />
<glyph unicode="W" horiz-adv-x="1212" d="M248 1434h76l88 -1254q146 425 309 916h67l56 -916q72 208 218.5 627t217.5 627h78l-502 -1434h-72l-55 909l-305 -909h-72z" />
<glyph unicode="X" horiz-adv-x="860" d="M53 0l434 717l-235 717h78l207 -635l381 635h79l-434 -717l236 -717h-80l-205 633l-383 -633h-78z" />
<glyph unicode="Y" horiz-adv-x="860" d="M244 1434h75l193 -809l416 809h78l-474 -920l-71 -514h-72l72 518z" />
<glyph unicode="Z" horiz-adv-x="860" d="M109 0l6 57l716 1305h-532l10 72h617l-8 -58l-717 -1304h532l-8 -72h-616z" />
<glyph unicode="[" horiz-adv-x="491" d="M80 -199l256 1819h309l-10 -72h-240l-235 -1675h239l-10 -72h-309z" />
<glyph unicode="\" horiz-adv-x="835" d="M244 1413l67 31l465 -1436l-63 -33z" />
<glyph unicode="]" horiz-adv-x="491" d="M39 -199l10 72h238l235 1675h-237l10 72h309l-256 -1819h-309z" />
<glyph unicode="^" horiz-adv-x="970" d="M264 1153l426 375l47 -51l-2 -2l281 -322l-62 -51l-278 321l-367 -321z" />
<glyph unicode="_" horiz-adv-x="757" d="M10 -424h729v-72h-729v72z" />
<glyph unicode="`" horiz-adv-x="606" d="M295 1397l53 59l320 -246l-58 -59z" />
<glyph unicode="a" d="M145 264h2l11 80q21 141 109.5 212t213.5 71h213l19 133q3 22 3 42q0 74 -41 117q-52 54 -143 54q-96 0 -256 -55l13 75q148 51 256 51q121 0 189 -72q54 -56 54 -154q0 -27 -4 -58l-106 -760h-72l2 29q-145 -49 -219 -49q-125 0 -195 72q-53 55 -54 150q0 29 5 62z M217 264q-3 -23 -3 -43q0 -75 40 -117q51 -54 145 -53q98 0 217 35l68 469h-213q-95 0 -162.5 -53.5t-81.5 -157.5z" />
<glyph unicode="b" d="M111 0l215 1536h69l-78 -547q142 55 222 55q126 0 195 -72q54 -56 54 -154q0 -27 -4 -58l-69 -496q-21 -141 -110.5 -212.5t-215.5 -71.5q-82 0 -205 53l-4 -33h-69zM190 86q113 -35 209 -35q95 0 162.5 54t81.5 159l70 496q3 22 3 42q0 74 -41 117q-52 54 -147 54 q-102 0 -217 -37z" />
<glyph unicode="c" horiz-adv-x="757" d="M145 264l70 496q19 141 108.5 212.5t215.5 71.5q104 0 237 -51l-12 -75q-141 55 -236 55q-94 0 -160.5 -54t-80.5 -159l-70 -496q-3 -23 -3 -43q0 -75 40 -117q51 -54 145 -53q92 0 252 55l-10 -75q-148 -51 -252 -51q-125 0 -195 72q-53 55 -54 150q0 29 5 62z" />
<glyph unicode="d" d="M147 264l70 496q19 141 108 212.5t214 71.5q83 0 206 -49l76 541h72l-215 -1536h-72l2 27q-139 -47 -219 -47q-125 0 -194 72q-53 55 -53 150q0 29 5 62zM217 264q-3 -23 -3 -43q0 -75 40 -117q51 -54 145 -53q98 0 217 35l121 850q-110 37 -209 37q-94 0 -160.5 -54 t-80.5 -159z" />
<glyph unicode="e" d="M147 264l70 496q19 141 108 212.5t214 71.5q126 0 195 -72q54 -56 54 -154q0 -27 -4 -58l-41 -283h-497l-29 -213q-3 -23 -3 -43q0 -75 40 -117q51 -54 145 -53q92 0 252 55l-10 -75q-148 -51 -252 -51q-125 0 -194 72q-53 55 -53 150q0 29 5 62zM256 547h426l31 213 q3 22 3 42q0 74 -41 117q-52 54 -147 54q-94 0 -160.5 -54t-80.5 -159z" />
<glyph unicode="f" horiz-adv-x="593" d="M182 952l11 72h157l23 162q19 141 112.5 211.5t227.5 70.5l-11 -69q-101 0 -172.5 -54t-85.5 -159l-22 -162h258l-10 -72h-258l-133 -952h-72l133 952h-158z" />
<glyph unicode="g" d="M51 -467l12 78q145 -55 267 -55q94 0 160 53.5t83 159.5l35 258q-139 -47 -219 -47q-125 0 -194 72q-53 54 -53 150q0 29 5 62l70 496q19 141 108 212.5t214 71.5q83 0 206 -49l5 29h71l-176 -1255q-21 -141 -110.5 -213t-215.5 -72q-129 0 -268 49zM217 264 q-3 -23 -3 -43q0 -75 40 -117q51 -53 145 -53q98 0 217 35l121 850q-110 37 -209 37q-94 0 -160.5 -54t-80.5 -159z" />
<glyph unicode="h" d="M111 0l215 1536h69l-76 -541q134 49 220 49q126 0 195 -72q54 -56 54 -154q0 -27 -4 -58l-106 -760h-72l107 760q3 22 3 42q0 74 -41 117q-52 54 -147 54q-102 0 -217 -37l-131 -936h-69z" />
<glyph unicode="i" horiz-adv-x="286" d="M106 0l144 1024h72l-144 -1024h-72zM272 1190l35 244h72l-35 -244h-72z" />
<glyph unicode="j" horiz-adv-x="286" d="M-197 -516l11 72q101 0 171 53.5t87 159.5l176 1255h71l-176 -1255q-21 -141 -114 -213t-226 -72zM270 1190l35 244h72l-35 -244h-72z" />
<glyph unicode="k" horiz-adv-x="753" d="M111 0l215 1536h69l-139 -989h203l286 477h78l-311 -512l170 -512h-78l-155 477h-203l-66 -477h-69z" />
<glyph unicode="l" horiz-adv-x="286" d="M106 0l216 1536h71l-215 -1536h-72z" />
<glyph unicode="m" horiz-adv-x="1187" d="M113 0l143 1024h72l-4 -33q132 53 190 53q114 0 176 -71q177 71 260 71q109 -2 171 -66q49 -51 49 -139q0 -23 -3 -48l-110 -791h-72l111 791q2 18 2 34q0 65 -36 101q-44 46 -122 47q-100 0 -225 -39q19 -45 19 -98q0 -22 -3 -45l-110 -791h-72l110 791q2 18 2 34 q0 63 -35 101q-44 46 -122 47q-77 0 -189 -33l-131 -940h-71z" />
<glyph unicode="n" d="M111 0l143 1024h70l-7 -35q142 55 222 55q126 0 195 -72q54 -56 54 -154q0 -27 -4 -58l-106 -760h-72l107 760q3 22 3 42q0 74 -41 117q-52 54 -147 54q-102 0 -217 -37l-131 -936h-69z" />
<glyph unicode="o" d="M147 264l70 496q19 141 108 212.5t214 71.5q126 0 195 -72q54 -56 54 -154q0 -27 -4 -58l-69 -496q-21 -141 -110.5 -212.5t-215.5 -71.5q-125 0 -194 72q-53 55 -53 150q0 29 5 62zM217 264q-3 -23 -3 -43q0 -75 40 -117q51 -54 145 -53q95 0 162.5 54t81.5 159l70 496 q3 22 3 42q0 74 -41 117q-52 54 -147 54q-94 0 -160.5 -54t-80.5 -159z" />
<glyph unicode="p" d="M39 -496l215 1520h70l-5 -29q134 49 220 49q126 0 195 -72q54 -56 54 -154q0 -28 -4 -58l-69 -496q-21 -141 -110.5 -212.5t-215.5 -71.5q-79 0 -207 47l-73 -523h-70zM190 86q113 -35 209 -35q95 0 162.5 54t81.5 159l70 496q3 22 3 42q0 74 -41 117q-52 54 -147 54 q-102 0 -217 -37z" />
<glyph unicode="q" d="M147 264l70 496q19 141 108 212.5t214 71.5q83 0 206 -49l5 29h71l-215 -1520h-71l73 523q-139 -47 -219 -47q-125 0 -194 72q-53 54 -53 150q0 29 5 62zM217 264q-3 -23 -3 -43q0 -75 40 -117q51 -53 145 -53q98 0 217 35l121 850q-110 37 -209 37q-94 0 -160.5 -54 t-80.5 -159z" />
<glyph unicode="r" horiz-adv-x="419" d="M109 0l143 1024h70l-7 -35q142 55 224 55l-11 -71q-104 0 -219 -37l-131 -936h-69z" />
<glyph unicode="s" d="M123 31l10 75q145 -55 266 -55q96 0 163 54.5t81 164.5q3 22 3 41q0 25 -5 47q-9 38 -26.5 58.5t-47.5 34t-54 18.5t-56 8q-42 4 -74 10.5t-70.5 24.5t-60.5 46q-22 29 -34 79q-6 28 -7 61q0 26 4 56q21 146 109.5 218t214.5 72q104 0 237 -51l-12 -75q-141 55 -236 55 t-161 -54.5t-82 -164.5q-3 -22 -3 -41q0 -25 5 -47q9 -38 27 -58.5t48 -34t53.5 -18.5t55.5 -8q42 -4 74 -10.5t71 -24.5t62 -46q22 -29 34 -79q6 -28 7 -61q0 -26 -4 -56q-21 -146 -110 -218t-216 -72q-133 0 -266 51z" />
<glyph unicode="t" horiz-adv-x="573" d="M182 952l11 72h137l26 199h72l-27 -199h258l-10 -72h-258l-96 -688q-3 -21 -3 -40q0 -76 45 -119q56 -54 157 -54l-11 -71q-133 0 -207 72q-57 56 -58 153q0 28 5 59l96 688h-137z" />
<glyph unicode="u" d="M147 264l107 760h70l-107 -760q-3 -23 -3 -43q0 -75 40 -117q51 -54 145 -53q98 0 217 35l134 938h71l-143 -1024h-72l4 33q-140 -53 -221 -53q-125 0 -194 72q-53 55 -53 150q0 29 5 62z" />
<glyph unicode="v" horiz-adv-x="655" d="M147 1024h74l123 -870l367 870h75l-430 -1024h-67z" />
<glyph unicode="w" horiz-adv-x="1015" d="M152 1024h75l86 -877l260 598h64l96 -593l328 872h76l-387 -1024h-70l-98 596q-37 -86 -125.5 -288t-132.5 -308h-70z" />
<glyph unicode="x" horiz-adv-x="729" d="M37 0l352 512l-209 512h82l178 -438l301 438h80l-352 -512l211 -512h-80l-180 438l-301 -438h-82z" />
<glyph unicode="y" d="M51 -467l12 78q145 -55 267 -55q94 0 160 53.5t83 159.5l37 264q-140 -53 -221 -53q-125 0 -194 72q-53 54 -53 150q0 29 5 62l107 760h70l-107 -760q-3 -23 -3 -43q0 -75 40 -117q51 -53 145 -53q98 0 217 35l134 938h71l-176 -1255q-21 -141 -110.5 -213t-215.5 -72 q-129 0 -268 49z" />
<glyph unicode="z" d="M111 0l8 59l606 893h-481l10 72h567l-8 -59l-610 -893h483l-8 -72h-567z" />
<glyph unicode="{" horiz-adv-x="702" d="M199 711l161 141q60 54 68 123l45 311q23 163 113 257.5t227 94.5l-10 -69q-105 0 -172 -75.5t-86 -207.5l-47 -328q-11 -84 -80 -147l-115 -100l86 -103q50 -59 39 -145l-45 -328q-19 -131 26.5 -206.5t151.5 -75.5l-10 -72q-137 0 -200 95.5t-40 258.5l43 311 q12 71 -32 123z" />
<glyph unicode="|" horiz-adv-x="286" d="M78 -199l256 1819h72l-256 -1819h-72z" />
<glyph unicode="}" horiz-adv-x="702" d="M76 -219l10 72q106 0 173.5 75.5t86.5 206.5l45 328q11 85 80 145l115 103l-86 100q-50 62 -39 147l47 328q19 131 -27.5 207t-152.5 76l10 69q137 0 201 -95t41 -257l-45 -311q-5 -39 2 -68t32 -55l121 -141l-160 -142q-57 -46 -69 -123l-43 -311q-23 -163 -114 -258.5 t-228 -95.5z" />
<glyph unicode="~" horiz-adv-x="835" d="M195 598q12 86 45.5 141.5t74 77t88.5 21.5q10 0 19 -2t16.5 -4t16 -7.5t14 -8.5t13.5 -11.5t11.5 -11.5t12 -14t10.5 -14t11 -15.5t10 -14.5q50 -76 92 -76q104 0 127 168h71q-17 -125 -75 -182t-134 -57q-82 0 -153 112q-2 3 -8 11t-8.5 11t-7.5 9.5t-8 9.5t-7.5 8 t-8 7.5t-8 5t-8.5 3.5t-8 1q-106 0 -127 -168h-71z" />
<glyph unicode="&#xa1;" horiz-adv-x="286" d="M49 -397l146 1024h71l-145 -1024h-72zM217 795l33 229h72l-33 -229h-72z" />
<glyph unicode="&#xa2;" horiz-adv-x="757" d="M145 264l70 496q18 130 96.5 201t192.5 81l24 181h70l-25 -181q85 -6 203 -49l-12 -75q-110 43 -201 53l-129 -918q96 10 217 53l-10 -75q-114 -39 -217 -49l-25 -181h-69l24 181q-111 10 -169.5 81t-39.5 201zM217 264q-14 -95 27 -148t121 -63l129 918 q-82 -10 -138 -62.5t-69 -148.5z" />
<glyph unicode="&#xa3;" horiz-adv-x="901" d="M145 674l11 71h157l54 381q22 154 121 234t237 80t266 -49l-10 -78q-142 57 -264 57q-108 0 -184.5 -60.5t-94.5 -183.5l-53 -381h299l-10 -71h-299l-86 -602h557l-8 -72h-629l94 674h-158z" />
<glyph unicode="&#xa4;" horiz-adv-x="634" d="M176 549l92 80q-18 33 -12 82q7 41 35 82l-70 77l60 54l67 -80q36 20 86 20q54 0 76 -20l92 80l43 -54l-88 -77q13 -49 8 -82q-5 -41 -30 -80l65 -82l-57 -51l-70 80q-46 -23 -82 -23q-47 0 -80 23l-90 -80zM328 711q-5 -36 16 -60t57 -24q35 0 61.5 24.5t31.5 59.5 q6 35 -14.5 59.5t-55.5 24.5q-36 0 -63 -24t-33 -60z" />
<glyph unicode="&#xa5;" horiz-adv-x="860" d="M186 199l11 71h227l22 166h-227l10 72h228l2 8l-215 905h75l191 -803l412 803h75l-469 -911v-2h230l-10 -72h-230l-22 -166h229l-10 -71h-230l-26 -199h-72l27 199h-228z" />
<glyph unicode="&#xa6;" horiz-adv-x="286" d="M78 -199l117 826h71l-116 -826h-72zM217 795l117 825h72l-117 -825h-72z" />
<glyph unicode="&#xa7;" d="M117 -12l10 78q150 -56 266 -56q95 0 162.5 54.5t81.5 162.5q7 50 -2 88t-26.5 59t-47.5 34.5t-54 18t-56 7.5h-15v2q-40 4 -71.5 11.5t-66.5 26.5t-56 47.5t-31.5 77.5t-1.5 114q26 181 168 252q-121 59 -98 243q21 146 109.5 218.5t213.5 72.5q105 0 238 -51l-11 -76 q-145 55 -237 55q-95 0 -161.5 -54.5t-82.5 -164.5q-7 -50 2.5 -87.5t27 -58.5t47.5 -34.5t54 -18.5t56 -8h14v-2q40 -4 71.5 -11.5t67.5 -26t57.5 -47t31.5 -77t1 -112.5q-26 -183 -170 -254q126 -65 101 -244q-21 -145 -110 -216.5t-216 -71.5t-266 49zM279 713 q-7 -50 2 -87.5t27 -58.5t48 -34.5t53.5 -18.5t55.5 -8q95 5 161.5 59.5t80.5 159.5q7 49 -1.5 86t-25.5 57.5t-45.5 34.5t-53 19t-55.5 8q-96 -3 -164.5 -58t-82.5 -159z" />
<glyph unicode="&#xa8;" horiz-adv-x="573" d="M274 1190l33 231h72l-33 -231h-72zM551 1190l33 231h71l-32 -231h-72z" />
<glyph unicode="&#xa9;" horiz-adv-x="860" d="M152 293l116 833q22 154 121 234t236 80t214.5 -80t55.5 -234l-117 -833q-15 -103 -68.5 -175t-127 -105t-162.5 -33q-137 0 -213.5 80t-54.5 233zM223 293q-18 -121 40.5 -181.5t166.5 -60.5t183.5 60.5t93.5 181.5l116 833q18 123 -40.5 183.5t-166.5 60.5t-183 -60.5 t-93 -183.5zM305 461l70 500q14 97 75 145.5t148 48.5q79 0 166 -33l-12 -75q-106 36 -164 36q-56 0 -94.5 -30.5t-47.5 -91.5l-69 -500q-9 -62 20.5 -92.5t85.5 -30.5q68 0 174 37l-10 -78q-98 -31 -174 -31q-87 0 -134 49t-34 146z" />
<glyph unicode="&#xab;" horiz-adv-x="923" d="M199 711l428 374l43 -51l-369 -323l279 -324l-58 -51zM485 711l428 374l43 -51l-368 -323l278 -324l-57 -51z" />
<glyph unicode="&#xac;" horiz-adv-x="757" d="M190 674v71h529v-299h-72v228h-457z" />
<glyph unicode="&#xad;" horiz-adv-x="757" d="M190 674v71h529v-71h-529z" />
<glyph unicode="&#xae;" horiz-adv-x="860" d="M152 293l116 833q22 154 121 234t236 80t214.5 -80t55.5 -234l-117 -833q-15 -103 -68.5 -175t-127 -105t-162.5 -33q-137 0 -213.5 80t-54.5 233zM223 293q-18 -121 40.5 -181.5t166.5 -60.5t183.5 60.5t93.5 181.5l116 833q18 123 -40.5 183.5t-166.5 60.5t-183 -60.5 t-93 -183.5zM279 279l120 864h199v-2q78 -8 120.5 -57t31.5 -136l-25 -166q-21 -148 -145 -182l106 -321h-74l-102 309h-4h-113l-43 -309h-71zM403 659h109q124 5 141 123l25 166q7 62 -27 92.5t-96 30.5h-94z" />
<glyph unicode="&#xaf;" horiz-adv-x="778" d="M287 1270l10 71h549l-10 -71h-549z" />
<glyph unicode="&#xb1;" horiz-adv-x="757" d="M190 274v72h529v-72h-529zM190 674v71h230v230h72v-230h227v-71h-227v-228h-72v228h-230z" />
<glyph unicode="&#xb4;" horiz-adv-x="606" d="M270 1210l383 246l39 -59l-387 -246z" />
<glyph unicode="&#xb8;" horiz-adv-x="518" d="M57 -346l11 78q95 -35 141 -35q35 0 59.5 20t30.5 60q7 42 -16 59t-58 17h-73l94 180h73l-55 -109q126 -13 107 -147q-10 -76 -57.5 -114t-114.5 -38q-63 0 -142 29z" />
<glyph unicode="&#xbb;" horiz-adv-x="923" d="M154 387l368 324l-278 323l59 51l322 -374l-426 -375zM440 387l369 324l-279 323l60 51l321 -374l-426 -375z" />
<glyph unicode="&#xbf;" horiz-adv-x="819" d="M94 -102l21 137q7 53 22.5 97t32.5 73.5t42 54t43.5 38t45.5 24.5t40 15t34 9l20 4q15 3 31 9.5t43.5 24t49.5 42t41.5 68t27.5 98.5l16 115h72l-17 -115q-10 -70 -36 -126t-55.5 -88t-66 -54.5t-60 -30.5t-44.5 -12q-4 -2 -8 -2l-22 -7q-30 -7 -50 -16t-50 -32.5 t-50.5 -71.5t-30.5 -117l-20 -137q-16 -123 42.5 -183.5t166.5 -60.5q123 0 280 57l-12 -78q-140 -49 -278 -49t-215 80t-56 234zM623 834l26 190h72l-27 -190h-71z" />
<glyph unicode="&#xc0;" horiz-adv-x="860" d="M45 0l545 1434h72l141 -1434h-78l-33 340h-442l-129 -340h-76zM276 412h408l-80 858zM397 1806l54 60l319 -246l-57 -59z" />
<glyph unicode="&#xc1;" horiz-adv-x="860" d="M45 0l545 1434h72l141 -1434h-78l-33 340h-442l-129 -340h-76zM276 412h408l-80 858zM537 1620l383 246l38 -60l-387 -245z" />
<glyph unicode="&#xc2;" horiz-adv-x="860" d="M45 0l545 1434h72l141 -1434h-78l-33 340h-442l-129 -340h-76zM276 412h408l-80 858zM397 1612l287 252l219 -252l-63 -53l-170 198l-226 -198z" />
<glyph unicode="&#xc3;" horiz-adv-x="860" d="M45 0l545 1434h72l141 -1434h-78l-33 340h-442l-129 -340h-76zM276 412h408l-80 858zM426 1599q20 132 61 187t111 55q24 0 41 -8.5t26.5 -26.5t13.5 -32t9 -39q14 -53 28 -65q10 -9 25 -9q40 0 58 35.5t32 134.5h72q-18 -132 -58.5 -186t-111.5 -54q-29 0 -49.5 10 t-32 30t-17 35.5t-11.5 41.5q-4 20 -7 30.5t-10 20.5t-18 10q-39 0 -57.5 -36t-32.5 -134h-72z" />
<glyph unicode="&#xc4;" horiz-adv-x="860" d="M45 0l545 1434h72l141 -1434h-78l-33 340h-442l-129 -340h-76zM276 412h408l-80 858zM475 1599l33 232h72l-33 -232h-72zM752 1599l32 232h72l-33 -232h-71z" />
<glyph unicode="&#xc5;" horiz-adv-x="860" d="M45 0l545 1434h72l141 -1434h-78l-33 340h-442l-129 -340h-76zM276 412h408l-80 858zM512 1716q9 63 60.5 108.5t115.5 45.5t103 -45.5t30 -108.5q-9 -64 -61 -109.5t-117 -45.5q-64 0 -102 45t-29 110zM582 1716q-4 -37 16 -60.5t55 -23.5q36 0 64.5 24t32.5 60 q4 35 -16.5 58.5t-55.5 23.5q-36 0 -64 -23.5t-32 -58.5z" />
<glyph unicode="&#xc6;" horiz-adv-x="1001" d="M45 0l545 1434h532l-10 -72h-360l-86 -608h299l-11 -74h-299l-86 -608h361l-8 -72h-435l48 340h-285l-129 -340h-76zM276 412h269l133 950h-39z" />
<glyph unicode="&#xc7;" horiz-adv-x="778" d="M150 297l118 840q21 155 121.5 236t239.5 81q134 0 270 -51l-12 -78q-142 57 -269 57q-110 0 -186 -61t-92 -184l-119 -840q-18 -123 41.5 -184.5t169.5 -61.5q122 0 285 58l-10 -78q-122 -43 -242 -49l-29 -58q128 -13 109 -147q-10 -78 -58 -117t-116 -39 q-66 0 -142 31l11 78q101 -37 141 -37q34 0 60 21.5t32 62.5q7 42 -16.5 59t-57.5 17h-73l65 129q-126 8 -194 88t-47 227z" />
<glyph unicode="&#xc8;" horiz-adv-x="716" d="M109 0l200 1434h553l-10 -72h-481l-86 -608h422l-11 -74h-422l-86 -608h482l-8 -72h-553zM408 1806l53 60l319 -246l-57 -59z" />
<glyph unicode="&#xc9;" horiz-adv-x="716" d="M109 0l200 1434h553l-10 -72h-481l-86 -608h422l-11 -74h-422l-86 -608h482l-8 -72h-553zM383 1620l383 246l39 -60l-387 -245z" />
<glyph unicode="&#xca;" horiz-adv-x="716" d="M109 0l200 1434h553l-10 -72h-481l-86 -608h422l-11 -74h-422l-86 -608h482l-8 -72h-553zM326 1612l286 252l219 -252l-63 -53l-170 198l-225 -198z" />
<glyph unicode="&#xcb;" horiz-adv-x="716" d="M109 0l200 1434h553l-10 -72h-481l-86 -608h422l-11 -74h-422l-86 -608h482l-8 -72h-553zM403 1599l33 232h72l-33 -232h-72zM680 1599l33 232h71l-32 -232h-72z" />
<glyph unicode="&#xcc;" horiz-adv-x="286" d="M106 0l201 1434h72l-201 -1434h-72zM195 1806l53 60l319 -246l-57 -59z" />
<glyph unicode="&#xcd;" horiz-adv-x="286" d="M106 0l201 1434h72l-201 -1434h-72zM170 1620l383 246l39 -60l-387 -245z" />
<glyph unicode="&#xce;" horiz-adv-x="286" d="M106 0l201 1434h72l-201 -1434h-72zM113 1612l286 252l219 -252l-63 -53l-170 198l-225 -198z" />
<glyph unicode="&#xcf;" horiz-adv-x="286" d="M106 0l201 1434h72l-201 -1434h-72zM190 1599l33 232h72l-33 -232h-72zM467 1599l33 232h71l-32 -232h-72z" />
<glyph unicode="&#xd0;" horiz-adv-x="929" d="M143 680l11 74h147l96 680h297q138 0 215.5 -81t55.5 -235l-113 -803q-22 -154 -121 -234.5t-237 -80.5h-297l94 680h-148zM279 72h223q109 0 184.5 60t93.5 183l113 803q18 123 -40.5 183.5t-168.5 60.5h-223l-86 -608h311l-10 -74h-311z" />
<glyph unicode="&#xd1;" horiz-adv-x="839" d="M109 0l200 1434h68l303 -1213l170 1213h72l-201 -1434h-66l-305 1212l-170 -1212h-71zM416 1599q20 132 61 187t111 55q24 0 41 -8.5t26.5 -26.5t13.5 -32t9 -39q14 -53 28 -65q10 -9 25 -9q40 0 58 35.5t32 134.5h72q-18 -132 -58.5 -186t-111.5 -54q-29 0 -49.5 10 t-32.5 30t-17.5 35.5t-11.5 41.5q-3 17 -4.5 23.5t-5.5 17.5t-10 15.5t-14 4.5q-39 0 -58 -36t-33 -134h-71z" />
<glyph unicode="&#xd2;" horiz-adv-x="860" d="M150 297l118 840q21 155 121.5 236t239.5 81q138 0 215.5 -80.5t56.5 -236.5l-119 -840q-22 -156 -122 -236.5t-238 -80.5q-139 0 -216.5 81t-55.5 236zM221 297q-18 -123 41.5 -184.5t169.5 -61.5q108 0 184.5 61.5t94.5 184.5l118 840q16 123 -43.5 184t-167.5 61 q-110 0 -186 -61t-92 -184zM397 1806l54 60l319 -246l-57 -59z" />
<glyph unicode="&#xd3;" horiz-adv-x="860" d="M150 297l118 840q21 155 121.5 236t239.5 81q138 0 215.5 -80.5t56.5 -236.5l-119 -840q-22 -156 -122 -236.5t-238 -80.5q-139 0 -216.5 81t-55.5 236zM221 297q-18 -123 41.5 -184.5t169.5 -61.5q108 0 184.5 61.5t94.5 184.5l118 840q16 123 -43.5 184t-167.5 61 q-110 0 -186 -61t-92 -184zM537 1620l383 246l38 -60l-387 -245z" />
<glyph unicode="&#xd4;" horiz-adv-x="860" d="M150 297l118 840q21 155 121.5 236t239.5 81q138 0 215.5 -80.5t56.5 -236.5l-119 -840q-22 -156 -122 -236.5t-238 -80.5q-139 0 -216.5 81t-55.5 236zM221 297q-18 -123 41.5 -184.5t169.5 -61.5q108 0 184.5 61.5t94.5 184.5l118 840q16 123 -43.5 184t-167.5 61 q-110 0 -186 -61t-92 -184zM397 1612l287 252l219 -252l-63 -53l-170 198l-226 -198z" />
<glyph unicode="&#xd5;" horiz-adv-x="860" d="M150 297l118 840q21 155 121.5 236t239.5 81q138 0 215.5 -80.5t56.5 -236.5l-119 -840q-22 -156 -122 -236.5t-238 -80.5q-139 0 -216.5 81t-55.5 236zM221 297q-18 -123 41.5 -184.5t169.5 -61.5q108 0 184.5 61.5t94.5 184.5l118 840q16 123 -43.5 184t-167.5 61 q-110 0 -186 -61t-92 -184zM426 1599q20 132 61 187t111 55q24 0 41 -8.5t26.5 -26.5t13.5 -32t9 -39q14 -53 28 -65q10 -9 25 -9q40 0 58 35.5t32 134.5h72q-18 -132 -58.5 -186t-111.5 -54q-29 0 -49.5 10t-32 30t-17 35.5t-11.5 41.5q-4 20 -7 30.5t-10 20.5t-18 10 q-39 0 -57.5 -36t-32.5 -134h-72z" />
<glyph unicode="&#xd6;" horiz-adv-x="860" d="M150 297l118 840q21 155 121.5 236t239.5 81q138 0 215.5 -80.5t56.5 -236.5l-119 -840q-22 -156 -122 -236.5t-238 -80.5q-139 0 -216.5 81t-55.5 236zM221 297q-18 -123 41.5 -184.5t169.5 -61.5q108 0 184.5 61.5t94.5 184.5l118 840q16 123 -43.5 184t-167.5 61 q-110 0 -186 -61t-92 -184zM475 1599l33 232h72l-33 -232h-72zM752 1599l32 232h72l-33 -232h-71z" />
<glyph unicode="&#xd7;" horiz-adv-x="634" d="M176 549l182 160l-137 161l60 54l137 -164l184 164l43 -54l-184 -161l139 -160l-57 -51l-140 159l-182 -159z" />
<glyph unicode="&#xd8;" horiz-adv-x="860" d="M57 10l95 156q-13 60 -2 131l118 840q21 155 121.5 236t239.5 81q168 0 237 -108l70 112l57 -33l-96 -159q13 -58 4 -129l-119 -840q-22 -156 -122 -236.5t-238 -80.5q-172 0 -240 110l-69 -115zM217 274l600 992q-21 58 -73.5 87t-125.5 29q-110 0 -186 -61t-92 -184 l-119 -840zM229 168q23 -58 76 -87.5t127 -29.5q108 0 184.5 61.5t94.5 184.5l118 840v18z" />
<glyph unicode="&#xd9;" horiz-adv-x="839" d="M150 297l159 1137h72l-160 -1137q-18 -123 38 -184.5t163 -61.5q105 0 177.5 61t90.5 185l160 1137h72l-160 -1137q-22 -157 -117 -237t-233 -80q-139 0 -211.5 80t-50.5 237zM408 1806l53 60l319 -246l-57 -59z" />
<glyph unicode="&#xda;" horiz-adv-x="839" d="M150 297l159 1137h72l-160 -1137q-18 -123 38 -184.5t163 -61.5q105 0 177.5 61t90.5 185l160 1137h72l-160 -1137q-22 -157 -117 -237t-233 -80q-139 0 -211.5 80t-50.5 237zM526 1620l383 246l39 -60l-387 -245z" />
<glyph unicode="&#xdb;" horiz-adv-x="839" d="M150 297l159 1137h72l-160 -1137q-18 -123 38 -184.5t163 -61.5q105 0 177.5 61t90.5 185l160 1137h72l-160 -1137q-22 -157 -117 -237t-233 -80q-139 0 -211.5 80t-50.5 237zM387 1612l287 252l219 -252l-64 -53l-170 198l-225 -198z" />
<glyph unicode="&#xdc;" horiz-adv-x="839" d="M150 297l159 1137h72l-160 -1137q-18 -123 38 -184.5t163 -61.5q105 0 177.5 61t90.5 185l160 1137h72l-160 -1137q-22 -157 -117 -237t-233 -80q-139 0 -211.5 80t-50.5 237zM465 1599l33 232h71l-32 -232h-72zM741 1599l33 232h72l-33 -232h-72z" />
<glyph unicode="&#xdd;" horiz-adv-x="860" d="M244 1434h75l193 -809l416 809h78l-474 -920l-71 -514h-72l72 518zM455 1620l383 246l39 -60l-388 -245z" />
<glyph unicode="&#xde;" horiz-adv-x="757" d="M109 0l200 1434h72l-37 -260h184q139 0 217 -81.5t56 -236.5l-39 -278q-11 -79 -42 -138t-66 -90.5t-85.5 -52.5t-86 -27t-81.5 -10h-186l-35 -260h-71zM225 332h183q37 3 62 7.5t66 20t68.5 39.5t52 70.5t33.5 108.5l39 278q18 124 -41.5 185t-169.5 61h-184z" />
<glyph unicode="&#xdf;" horiz-adv-x="860" d="M111 0l172 1227q21 153 120 233t236 80t214 -80t56 -233l-20 -140q-29 -210 -199 -278q150 -73 121 -277l-31 -219q-22 -154 -124.5 -233.5t-247.5 -79.5l8 72q115 0 195 60t98 181l30 219q8 58 -2 101.5t-29.5 68t-52 41t-58.5 22t-60 9.5q-8 -2 -23 -2l12 76 q6 -2 21 -2q35 3 62.5 8.5t64.5 21t63.5 40t49 68.5t30.5 103l21 140q16 121 -42.5 181t-166.5 60t-183.5 -60t-91.5 -181l-172 -1227h-71z" />
<glyph unicode="&#xe0;" d="M145 264h2l11 80q21 141 109.5 212t213.5 71h213l19 133q14 105 -38 159t-143 54q-96 0 -256 -55l13 75q148 51 256 51q121 0 189.5 -72t49.5 -212l-106 -760h-72l2 29q-145 -49 -219 -49q-126 0 -195.5 71.5t-48.5 212.5zM217 264q-14 -106 37 -159.5t145 -53.5 q98 0 217 35l68 469h-213q-95 0 -162.5 -53.5t-81.5 -157.5zM391 1397l53 59l320 -246l-57 -59z" />
<glyph unicode="&#xe1;" d="M145 264h2l11 80q21 141 109.5 212t213.5 71h213l19 133q14 105 -38 159t-143 54q-96 0 -256 -55l13 75q148 51 256 51q121 0 189.5 -72t49.5 -212l-106 -760h-72l2 29q-145 -49 -219 -49q-126 0 -195.5 71.5t-48.5 212.5zM217 264q-14 -106 37 -159.5t145 -53.5 q98 0 217 35l68 469h-213q-95 0 -162.5 -53.5t-81.5 -157.5zM367 1210l383 246l38 -59l-387 -246z" />
<glyph unicode="&#xe2;" d="M145 264h2l11 80q21 141 109.5 212t213.5 71h213l19 133q14 105 -38 159t-143 54q-96 0 -256 -55l13 75q148 51 256 51q121 0 189.5 -72t49.5 -212l-106 -760h-72l2 29q-145 -49 -219 -49q-126 0 -195.5 71.5t-48.5 212.5zM217 264q-14 -106 37 -159.5t145 -53.5 q98 0 217 35l68 469h-213q-95 0 -162.5 -53.5t-81.5 -157.5zM309 1202l287 252l219 -252l-63 -53l-170 199l-226 -199z" />
<glyph unicode="&#xe3;" d="M145 264h2l11 80q21 141 109.5 212t213.5 71h213l19 133q14 105 -38 159t-143 54q-96 0 -256 -55l13 75q148 51 256 51q121 0 189.5 -72t49.5 -212l-106 -760h-72l2 29q-145 -49 -219 -49q-126 0 -195.5 71.5t-48.5 212.5zM217 264q-14 -106 37 -159.5t145 -53.5 q98 0 217 35l68 469h-213q-95 0 -162.5 -53.5t-81.5 -157.5zM338 1190q20 132 61 187t111 55q24 0 41 -8.5t26.5 -27t13.5 -32.5t9 -39q14 -53 28 -65q10 -9 25 -9q40 0 58 35.5t32 134.5h72q-18 -131 -58.5 -185t-111.5 -54q-29 0 -49.5 9.5t-32 29.5t-17 35.5t-11.5 41.5 q-4 21 -7 31t-10 20.5t-18 10.5q-39 0 -57.5 -36t-32.5 -134h-72z" />
<glyph unicode="&#xe4;" d="M145 264h2l11 80q21 141 109.5 212t213.5 71h213l19 133q14 105 -38 159t-143 54q-96 0 -256 -55l13 75q148 51 256 51q121 0 189.5 -72t49.5 -212l-106 -760h-72l2 29q-145 -49 -219 -49q-126 0 -195.5 71.5t-48.5 212.5zM217 264q-14 -106 37 -159.5t145 -53.5 q98 0 217 35l68 469h-213q-95 0 -162.5 -53.5t-81.5 -157.5zM387 1190l33 231h72l-33 -231h-72zM664 1190l32 231h72l-33 -231h-71z" />
<glyph unicode="&#xe5;" d="M145 264h2l11 80q21 141 109.5 212t213.5 71h213l19 133q14 105 -38 159t-143 54q-96 0 -256 -55l13 75q148 51 256 51q121 0 189.5 -72t49.5 -212l-106 -760h-72l2 29q-145 -49 -219 -49q-126 0 -195.5 71.5t-48.5 212.5zM217 264q-14 -106 37 -159.5t145 -53.5 q98 0 217 35l68 469h-213q-95 0 -162.5 -53.5t-81.5 -157.5zM424 1307q9 63 60.5 108t115.5 45t103 -45t30 -108q-9 -64 -61 -110t-117 -46q-64 0 -102 45.5t-29 110.5zM494 1307q-4 -37 16 -60.5t55 -23.5q36 0 64.5 24t32.5 60q4 35 -16.5 58.5t-55.5 23.5 q-36 0 -64 -23.5t-32 -58.5z" />
<glyph unicode="&#xe6;" horiz-adv-x="1310" d="M152 264l10 80q21 141 109.5 212t213.5 71h213l19 133q14 105 -38 159t-147 54q-91 0 -251 -55l12 75q145 51 250 51q92 0 151 -39.5t74 -117.5q81 157 270 157q126 0 195.5 -71.5t50.5 -212.5l-41 -283h-495l-29 -213q-14 -106 36 -159.5t144 -53.5q91 0 254 55l-10 -75 q-151 -51 -254 -51q-198 0 -227 167q-77 -167 -269 -167q-125 0 -193.5 71.5t-47.5 212.5zM221 264q-14 -106 37 -159.5t145 -53.5q91 0 158 54.5t86 162.5l41 287h-213q-95 0 -162.5 -53.5t-81.5 -157.5zM758 547h424l30 213q14 105 -37.5 159t-146.5 54q-94 0 -160 -53.5 t-80 -159.5z" />
<glyph unicode="&#xe7;" horiz-adv-x="757" d="M145 264l70 496q19 141 108.5 212.5t215.5 71.5q104 0 237 -51l-12 -75q-141 55 -236 55q-94 0 -160.5 -54t-80.5 -159l-70 -496q-14 -106 37 -159.5t145 -53.5q92 0 252 55l-10 -75q-121 -44 -233 -51l-27 -56q125 -13 106 -147q-10 -76 -57.5 -114t-114.5 -38 q-63 0 -139 29l10 78q91 -35 140 -35q35 0 59.5 20t30.5 60q7 42 -16 59t-58 17h-72l68 131q-103 13 -157 83.5t-36 196.5z" />
<glyph unicode="&#xe8;" d="M147 264l70 496q19 141 108 212.5t214 71.5q126 0 195 -71.5t50 -212.5l-41 -283h-497l-29 -213q-14 -106 37 -159.5t145 -53.5q92 0 252 55l-10 -75q-148 -51 -252 -51q-125 0 -194 71.5t-48 212.5zM256 547h426l31 213q14 105 -38 159t-147 54q-94 0 -160.5 -54 t-80.5 -159zM350 1397l53 59l320 -246l-57 -59z" />
<glyph unicode="&#xe9;" d="M147 264l70 496q19 141 108 212.5t214 71.5q126 0 195 -71.5t50 -212.5l-41 -283h-497l-29 -213q-14 -106 37 -159.5t145 -53.5q92 0 252 55l-10 -75q-148 -51 -252 -51q-125 0 -194 71.5t-48 212.5zM256 547h426l31 213q14 105 -38 159t-147 54q-94 0 -160.5 -54 t-80.5 -159zM408 1210l383 246l38 -59l-387 -246z" />
<glyph unicode="&#xea;" d="M147 264l70 496q19 141 108 212.5t214 71.5q126 0 195 -71.5t50 -212.5l-41 -283h-497l-29 -213q-14 -106 37 -159.5t145 -53.5q92 0 252 55l-10 -75q-148 -51 -252 -51q-125 0 -194 71.5t-48 212.5zM256 547h426l31 213q14 105 -38 159t-147 54q-94 0 -160.5 -54 t-80.5 -159zM309 1202l287 252l219 -252l-63 -53l-170 199l-226 -199z" />
<glyph unicode="&#xeb;" d="M147 264l70 496q19 141 108 212.5t214 71.5q126 0 195 -71.5t50 -212.5l-41 -283h-497l-29 -213q-14 -106 37 -159.5t145 -53.5q92 0 252 55l-10 -75q-148 -51 -252 -51q-125 0 -194 71.5t-48 212.5zM256 547h426l31 213q14 105 -38 159t-147 54q-94 0 -160.5 -54 t-80.5 -159zM387 1190l33 231h72l-33 -231h-72zM664 1190l32 231h72l-33 -231h-71z" />
<glyph unicode="&#xec;" horiz-adv-x="286" d="M106 0l144 1024h72l-144 -1024h-72zM135 1397l53 59l320 -246l-57 -59z" />
<glyph unicode="&#xed;" horiz-adv-x="286" d="M106 0l144 1024h72l-144 -1024h-72zM111 1210l383 246l38 -59l-387 -246z" />
<glyph unicode="&#xee;" horiz-adv-x="286" d="M53 1202l287 252l219 -252l-63 -53l-170 199l-226 -199zM106 0l144 1024h72l-144 -1024h-72z" />
<glyph unicode="&#xef;" horiz-adv-x="286" d="M106 0l144 1024h72l-144 -1024h-72zM131 1190l33 231h72l-33 -231h-72zM408 1190l32 231h72l-33 -231h-71z" />
<glyph unicode="&#xf0;" d="M147 264l70 496q19 141 108.5 212.5t215.5 71.5q63 0 198 -53q-9 73 -41 193l-20 71l-229 -77l-15 69l225 78l-49 195h76l43 -172l227 79l17 -69l-228 -78l19 -63q54 -199 24 -426l-75 -543h-2q-28 -132 -115.5 -200t-204.5 -68q-126 0 -195.5 71.5t-48.5 212.5zM219 264 q-14 -106 36.5 -159.5t145.5 -53.5t161.5 54t80.5 159l78 557h16q6 62 6 115q-122 37 -213 37q-96 0 -161.5 -53.5t-79.5 -159.5z" />
<glyph unicode="&#xf1;" d="M111 0l143 1024h70l-7 -35q142 55 222 55q126 0 195 -71.5t50 -212.5l-106 -760h-72l107 760q14 105 -38 159t-147 54q-102 0 -217 -37l-131 -936h-69zM344 1190q20 132 61 187t111 55q24 0 41 -8.5t26.5 -27t13.5 -32.5t9 -39q14 -53 28 -65q10 -9 25 -9q40 0 58.5 35.5 t32.5 134.5h71q-18 -131 -58.5 -185t-111.5 -54q-29 0 -49.5 9.5t-32 29.5t-17 35.5t-11.5 41.5q-4 21 -7 31t-10 20.5t-18 10.5q-39 0 -57.5 -36t-32.5 -134h-72z" />
<glyph unicode="&#xf2;" d="M147 264l70 496q19 141 108 212.5t214 71.5q126 0 195 -71.5t50 -212.5l-69 -496q-21 -141 -110.5 -212.5t-215.5 -71.5q-125 0 -194 71.5t-48 212.5zM217 264q-14 -106 37 -159.5t145 -53.5q95 0 162.5 54t81.5 159l70 496q14 105 -38 159t-147 54q-94 0 -160.5 -54 t-80.5 -159zM330 1397l53 59l319 -246l-57 -59z" />
<glyph unicode="&#xf3;" d="M147 264l70 496q19 141 108 212.5t214 71.5q126 0 195 -71.5t50 -212.5l-69 -496q-21 -141 -110.5 -212.5t-215.5 -71.5q-125 0 -194 71.5t-48 212.5zM217 264q-14 -106 37 -159.5t145 -53.5q95 0 162.5 54t81.5 159l70 496q14 105 -38 159t-147 54q-94 0 -160.5 -54 t-80.5 -159zM449 1210l382 246l39 -59l-387 -246z" />
<glyph unicode="&#xf4;" d="M147 264l70 496q19 141 108 212.5t214 71.5q126 0 195 -71.5t50 -212.5l-69 -496q-21 -141 -110.5 -212.5t-215.5 -71.5q-125 0 -194 71.5t-48 212.5zM217 264q-14 -106 37 -159.5t145 -53.5q95 0 162.5 54t81.5 159l70 496q14 105 -38 159t-147 54q-94 0 -160.5 -54 t-80.5 -159zM309 1202l287 252l219 -252l-63 -53l-170 199l-226 -199z" />
<glyph unicode="&#xf5;" d="M147 264l70 496q19 141 108 212.5t214 71.5q126 0 195 -71.5t50 -212.5l-69 -496q-21 -141 -110.5 -212.5t-215.5 -71.5q-125 0 -194 71.5t-48 212.5zM217 264q-14 -106 37 -159.5t145 -53.5q95 0 162.5 54t81.5 159l70 496q14 105 -38 159t-147 54q-94 0 -160.5 -54 t-80.5 -159zM338 1190q20 132 61 187t111 55q24 0 41 -8.5t26.5 -27t13.5 -32.5t9 -39q14 -53 28 -65q10 -9 25 -9q40 0 58 35.5t32 134.5h72q-18 -131 -58.5 -185t-111.5 -54q-29 0 -49.5 9.5t-32 29.5t-17 35.5t-11.5 41.5q-4 21 -7 31t-10 20.5t-18 10.5q-39 0 -57.5 -36 t-32.5 -134h-72z" />
<glyph unicode="&#xf6;" d="M147 264l70 496q19 141 108 212.5t214 71.5q126 0 195 -71.5t50 -212.5l-69 -496q-21 -141 -110.5 -212.5t-215.5 -71.5q-125 0 -194 71.5t-48 212.5zM217 264q-14 -106 37 -159.5t145 -53.5q95 0 162.5 54t81.5 159l70 496q14 105 -38 159t-147 54q-94 0 -160.5 -54 t-80.5 -159zM387 1190l33 231h72l-33 -231h-72zM664 1190l32 231h72l-33 -231h-71z" />
<glyph unicode="&#xf7;" horiz-adv-x="757" d="M203 674l10 71h528l-10 -71h-528zM399 446l19 132h71l-18 -132h-72zM455 844l18 131h72l-19 -131h-71z" />
<glyph unicode="&#xf8;" d="M27 10l118 152q-6 47 2 102l70 496q19 141 108 212.5t214 71.5q158 0 219 -104l84 107l61 -33l-119 -152q7 -35 0 -102l-69 -496q-21 -141 -110.5 -212.5t-215.5 -71.5q-160 0 -219 106l-86 -111zM215 250l487 620q-18 51 -64 77t-110 26q-94 0 -160.5 -54t-80.5 -159 l-70 -496zM223 154q37 -103 176 -103q95 0 162.5 54t81.5 159l70 496v12z" />
<glyph unicode="&#xf9;" d="M147 264l107 760h70l-107 -760q-14 -106 37 -159.5t145 -53.5q98 0 217 35l134 938h71l-143 -1024h-72l4 33q-140 -53 -221 -53q-125 0 -194 71.5t-48 212.5zM350 1397l53 59l320 -246l-57 -59z" />
<glyph unicode="&#xfa;" d="M147 264l107 760h70l-107 -760q-14 -106 37 -159.5t145 -53.5q98 0 217 35l134 938h71l-143 -1024h-72l4 33q-140 -53 -221 -53q-125 0 -194 71.5t-48 212.5zM428 1210l383 246l39 -59l-387 -246z" />
<glyph unicode="&#xfb;" d="M147 264l107 760h70l-107 -760q-14 -106 37 -159.5t145 -53.5q98 0 217 35l134 938h71l-143 -1024h-72l4 33q-140 -53 -221 -53q-125 0 -194 71.5t-48 212.5zM309 1202l287 252l219 -252l-63 -53l-170 199l-226 -199z" />
<glyph unicode="&#xfc;" d="M147 264l107 760h70l-107 -760q-14 -106 37 -159.5t145 -53.5q98 0 217 35l134 938h71l-143 -1024h-72l4 33q-140 -53 -221 -53q-125 0 -194 71.5t-48 212.5zM387 1190l33 231h72l-33 -231h-72zM664 1190l32 231h72l-33 -231h-71z" />
<glyph unicode="&#xfd;" d="M51 -467l12 78q145 -55 267 -55q94 0 160 53.5t83 159.5l37 264q-140 -53 -221 -53q-125 0 -194 71.5t-48 212.5l107 760h70l-107 -760q-14 -106 37 -159.5t145 -53.5q98 0 217 35l134 938h71l-176 -1255q-21 -141 -110.5 -213t-215.5 -72q-129 0 -268 49zM367 1210 l383 246l38 -59l-387 -246z" />
<glyph unicode="&#xfe;" d="M39 -496l285 2016h69l-76 -531q142 55 222 55q126 0 195 -71.5t50 -212.5l-69 -496q-21 -141 -110.5 -212.5t-215.5 -71.5q-82 0 -205 53l-75 -529h-70zM190 86q113 -35 209 -35q95 0 162.5 54t81.5 159l70 496q14 105 -38 159t-147 54q-102 0 -217 -37z" />
<glyph unicode="&#xff;" d="M51 -467l12 78q145 -55 267 -55q94 0 160 53.5t83 159.5l37 264q-140 -53 -221 -53q-125 0 -194 71.5t-48 212.5l107 760h70l-107 -760q-14 -106 37 -159.5t145 -53.5q98 0 217 35l134 938h71l-176 -1255q-21 -141 -110.5 -213t-215.5 -72q-129 0 -268 49zM387 1190 l33 231h72l-33 -231h-72zM664 1190l32 231h72l-33 -231h-71z" />
<glyph unicode="&#x152;" horiz-adv-x="1310" d="M154 297l118 840q21 155 120.5 236t238.5 81q168 0 229 -113l12 93h553l-10 -72h-479l-86 -608h420l-10 -74h-420l-86 -608h479l-8 -72h-553l12 92q-90 -112 -260 -112q-138 0 -215 81t-55 236zM225 297q-18 -123 41.5 -184.5t167.5 -61.5q109 0 185 61.5t94 184.5 l118 852q11 116 -47 174.5t-163 58.5q-108 0 -184.5 -61t-92.5 -184z" />
<glyph unicode="&#x153;" horiz-adv-x="1310" d="M152 264l69 496q19 141 108 212.5t214 71.5q92 0 151 -39.5t74 -117.5q81 157 270 157q126 0 195.5 -71.5t50.5 -212.5l-41 -283h-495l-29 -213q-14 -106 36 -159.5t144 -53.5q91 0 254 55l-10 -75q-151 -51 -254 -51q-191 0 -225 155q-78 -155 -271 -155 q-125 0 -193.5 71.5t-47.5 212.5zM221 264q-14 -106 37 -159.5t145 -53.5q95 0 162.5 54t81.5 159l70 496q14 105 -38 159t-147 54q-94 0 -160.5 -54t-80.5 -159zM758 547h424l30 213q14 105 -37.5 159t-146.5 54q-94 0 -160 -53.5t-80 -159.5z" />
<glyph unicode="&#x178;" horiz-adv-x="860" d="M244 1434h75l193 -809l416 809h78l-474 -920l-71 -514h-72l72 518zM475 1599l33 232h72l-33 -232h-72zM752 1599l32 232h72l-33 -232h-71z" />
<glyph unicode="&#x2c6;" horiz-adv-x="716" d="M268 1202l287 252l219 -252l-63 -53l-170 199l-226 -199z" />
<glyph unicode="&#x2dc;" horiz-adv-x="716" d="M250 1190q20 132 61 187t111 55q24 0 41 -8.5t26.5 -27t13.5 -32.5t9 -39q14 -53 28 -65q10 -9 25 -9q40 0 58 35.5t32 134.5h72q-18 -131 -58.5 -185t-111.5 -54q-29 0 -49.5 9.5t-32.5 29.5t-17.5 35.5t-11.5 41.5q-3 17 -4.5 23.5t-5.5 18t-10 16t-14 4.5 q-39 0 -57.5 -36t-32.5 -134h-72z" />
<glyph unicode="&#x2000;" horiz-adv-x="935" />
<glyph unicode="&#x2001;" horiz-adv-x="1870" />
<glyph unicode="&#x2002;" horiz-adv-x="935" />
<glyph unicode="&#x2003;" horiz-adv-x="1870" />
<glyph unicode="&#x2004;" horiz-adv-x="623" />
<glyph unicode="&#x2005;" horiz-adv-x="467" />
<glyph unicode="&#x2006;" horiz-adv-x="311" />
<glyph unicode="&#x2007;" horiz-adv-x="311" />
<glyph unicode="&#x2008;" horiz-adv-x="233" />
<glyph unicode="&#x2009;" horiz-adv-x="374" />
<glyph unicode="&#x200a;" horiz-adv-x="103" />
<glyph unicode="&#x2010;" horiz-adv-x="757" d="M190 674v71h529v-71h-529z" />
<glyph unicode="&#x2011;" horiz-adv-x="757" d="M190 674v71h529v-71h-529z" />
<glyph unicode="&#x2012;" horiz-adv-x="757" d="M190 674v71h529v-71h-529z" />
<glyph unicode="&#x2013;" horiz-adv-x="962" d="M193 674v71h727v-71h-727z" />
<glyph unicode="&#x2014;" horiz-adv-x="1167" d="M195 674v71h925v-71h-925z" />
<glyph unicode="&#x2018;" horiz-adv-x="335" d="M242 973l24 174q19 127 88 274h78q-63 -121 -92 -258h39l-27 -190h-110z" />
<glyph unicode="&#x2019;" horiz-adv-x="335" d="M233 973q71 139 93 258h-39l26 190h111l-25 -174q-16 -124 -88 -274h-78z" />
<glyph unicode="&#x201a;" horiz-adv-x="327" d="M53 -258q65 130 92 258h-39l27 190h111l-25 -174q-19 -127 -88 -274h-78z" />
<glyph unicode="&#x201c;" horiz-adv-x="540" d="M242 973l24 174q19 127 88 274h78q-63 -121 -92 -258h39l-27 -190h-110zM446 973l25 174q19 127 88 274h78q-63 -121 -92 -258h39l-27 -190h-111z" />
<glyph unicode="&#x201d;" horiz-adv-x="542" d="M233 973q71 139 93 258h-39l26 190h111l-25 -174q-16 -124 -88 -274h-78zM440 973q70 136 92 258h-38l26 190h111l-25 -174q-16 -124 -88 -274h-78z" />
<glyph unicode="&#x201e;" horiz-adv-x="540" d="M63 -258q67 134 93 258h-41l26 190h113l-25 -174q-20 -131 -90 -274h-76zM262 -258q65 130 92 258h-41l27 190h113l-25 -174q-20 -131 -90 -274h-76z" />
<glyph unicode="&#x2022;" horiz-adv-x="532" d="M190 711q0 64 44.5 108.5t109.5 44.5t110.5 -44.5t45.5 -108.5q0 -65 -46 -110.5t-110 -45.5t-109 45.5t-45 110.5z" />
<glyph unicode="&#x2026;" horiz-adv-x="901" d="M111 0l26 190h111l-27 -190h-110zM389 0l27 190h110l-26 -190h-111zM666 0l26 190h113l-27 -190h-112z" />
<glyph unicode="&#x202f;" horiz-adv-x="374" />
<glyph unicode="&#x2039;" horiz-adv-x="636" d="M199 711l428 374l43 -51l-369 -323l279 -324l-58 -51z" />
<glyph unicode="&#x203a;" horiz-adv-x="636" d="M154 387l368 324l-278 323l59 51l322 -374l-426 -375z" />
<glyph unicode="&#x205f;" horiz-adv-x="467" />
<glyph unicode="&#x20ac;" horiz-adv-x="827" d="M125 537l10 71h107l28 205h-106l10 72h107l34 241q22 154 121 234t236 80t268 -49l-10 -78q-145 57 -266 57q-108 0 -183.5 -60.5t-93.5 -183.5l-35 -241h348l-10 -72h-348l-29 -205h349l-11 -71h-348l-33 -244q-18 -121 40.5 -181.5t166.5 -60.5q120 0 283 55l-10 -75 q-151 -51 -283 -51q-137 0 -213.5 80t-54.5 233l32 244h-106z" />
<glyph unicode="&#x2122;" horiz-adv-x="946" d="M299 1350l10 71h309l-10 -71h-119l-49 -359h-71l49 359h-119zM588 991l57 414l-4 16h78l72 -313l157 313h78l-8 -16l-57 -414h-72l31 223l-115 -223h-64l-51 219l-31 -219h-71z" />
<glyph unicode="&#x25fc;" horiz-adv-x="1024" d="M0 0v1024h1024v-1024h-1024z" />
</font>
</defs>
</svg>
